<?xml version="1.0" standalone="no"?>
<!DOCTYPE svg PUBLIC "-//W3C//DTD SVG 20010904//EN"
 "http://www.w3.org/TR/2001/REC-SVG-20010904/DTD/svg10.dtd">
<svg version="1.0" xmlns="http://www.w3.org/2000/svg"
 width="512.000000pt" height="512.000000pt" viewBox="0 0 512.000000 512.000000"
 preserveAspectRatio="xMidYMid meet">
<metadata>
Created by potrace 1.11, written by Peter Selinger 2001-2013
</metadata>
<g transform="translate(0.000000,512.000000) scale(0.100000,-0.100000)"
fill="#000000" stroke="none">
<path d="M0 2560 l0 -2560 2560 0 2560 0 0 2560 0 2560 -2560 0 -2560 0 0
-2560z m2760 427 c0 -970 -3 -1071 -36 -1202 -34 -139 -125 -278 -242 -371
-100 -79 -331 -178 -376 -161 -7 3 -29 33 -49 66 -32 54 -35 62 -19 67 177 58
314 168 382 308 81 167 89 293 90 1434 l0 832 125 0 125 0 0 -973z"/>
</g>
</svg>
