<svg width="35" height="36" viewBox="0 0 35 36" fill="none" xmlns="http://www.w3.org/2000/svg">
<g clip-path="url(#clip0_603_6228)">
<path d="M15.8589 16.7769L7.81864 9.97138C7.49022 9.69655 7.10533 9.49742 6.69128 9.38811C6.27723 9.27881 5.84419 9.26202 5.42292 9.33894C5.00166 9.41586 4.6025 9.5846 4.25379 9.83317C3.90509 10.0817 3.6154 10.4041 3.4053 10.7772C3.19521 11.1504 3.06986 11.5652 3.03815 11.9923C3.00645 12.4193 3.06918 12.8481 3.22188 13.2482C3.37458 13.6483 3.6135 14.0098 3.92168 14.3072C4.22986 14.6045 4.59973 14.8303 5.00503 14.9686H5.03419L5.11003 14.9919L15.2522 18.0817C15.3258 18.1082 15.4034 18.1221 15.4817 18.1225C15.6394 18.1217 15.7925 18.0695 15.9179 17.9738C16.0433 17.8781 16.134 17.7442 16.1765 17.5923C16.2189 17.4404 16.2106 17.2789 16.153 17.1321C16.0953 16.9853 15.9914 16.8613 15.857 16.7789L15.8589 16.7769Z" fill="url(#paint0_linear_603_6228)"/>
<path d="M17.4708 5.54195C17.4732 5.1592 17.3717 4.78297 17.1772 4.4533C16.9827 4.12362 16.7025 3.85282 16.3664 3.6697C16.0303 3.48658 15.6508 3.39799 15.2684 3.41336C14.8859 3.42872 14.5148 3.54746 14.1945 3.75695L4.37502 9.71862C4.04114 9.93624 3.7554 10.22 3.53544 10.5523C3.31547 10.8846 3.16596 11.2585 3.09611 11.6509C3.02626 12.0433 3.03757 12.4458 3.12933 12.8336C3.22109 13.2215 3.39136 13.5864 3.62963 13.9058C3.8679 14.2253 4.16911 14.4926 4.51468 14.6911C4.86025 14.8896 5.24284 15.0152 5.63884 15.0602C6.03484 15.1051 6.43584 15.0684 6.8171 14.9523C7.19836 14.8362 7.55179 14.6433 7.85557 14.3853L16.6581 7.21223L16.7281 7.1539C16.9607 6.95462 17.1476 6.7074 17.2758 6.42917C17.404 6.15095 17.4705 5.84829 17.4708 5.54195Z" fill="url(#paint1_linear_603_6228)"/>
<path d="M31.7508 18.3889L16.8525 4.04083C16.6508 3.83838 16.4102 3.67878 16.1453 3.57161C15.8803 3.46444 15.5965 3.41191 15.3107 3.41717C15.025 3.42243 14.7432 3.48538 14.4824 3.60223C14.2216 3.71908 13.9871 3.88742 13.793 4.09716C13.5988 4.3069 13.4491 4.5537 13.3527 4.82275C13.2563 5.09181 13.2153 5.37756 13.2321 5.66286C13.2489 5.94817 13.3231 6.22713 13.4504 6.48302C13.5777 6.7389 13.7554 6.96643 13.9728 7.15194L14 7.17528L29.8278 20.5103C30.0366 20.6855 30.2912 20.7973 30.5614 20.8328C30.8317 20.8682 31.1065 20.8258 31.3534 20.7104C31.6004 20.5949 31.8092 20.4114 31.9554 20.1813C32.1016 19.9513 32.179 19.6842 32.1786 19.4117C32.1786 19.2213 32.1408 19.0329 32.0673 18.8574C31.9939 18.6818 31.8863 18.5225 31.7508 18.3889Z" fill="url(#paint2_linear_603_6228)"/>
<path d="M32.1805 19.4175C32.1825 19.1531 32.111 18.8933 31.974 18.667C31.8371 18.4408 31.6401 18.257 31.4049 18.1361C31.1697 18.0151 30.9056 17.9618 30.6419 17.9821C30.3782 18.0024 30.1253 18.0954 29.9114 18.2508L11.8844 27.0592C11.525 27.2398 11.2068 27.4928 10.9498 27.8023C10.6929 28.1118 10.5027 28.4712 10.3913 28.8577C10.2799 29.2443 10.2497 29.6497 10.3026 30.0485C10.3554 30.4472 10.4902 30.8308 10.6984 31.175C10.9066 31.5192 11.1837 31.8166 11.5124 32.0485C11.8411 32.2804 12.2142 32.4418 12.6083 32.5226C13.0024 32.6034 13.4089 32.6018 13.8024 32.5178C14.1958 32.4339 14.5676 32.2695 14.8944 32.035L31.5641 20.5939C31.7544 20.4623 31.9099 20.2866 32.0173 20.0817C32.1246 19.8768 32.1807 19.6488 32.1805 19.4175Z" fill="url(#paint3_linear_603_6228)"/>
<path d="M11.6667 12.1667H23.3334V23.8333H11.6667V12.1667Z" fill="black"/>
<path d="M12.9364 21.6458H17.3114V22.375H12.9364V21.6458Z" fill="white"/>
<path d="M12.7536 15.1747L13.0783 14.8675C13.1092 14.9163 13.1512 14.957 13.2009 14.9864C13.2506 15.0158 13.3065 15.033 13.3642 15.0367C13.4886 15.0367 13.5703 14.9492 13.5703 14.78V13.6289H14.0719V14.7839C14.0794 14.8769 14.0674 14.9704 14.0366 15.0585C14.0058 15.1466 13.9569 15.2272 13.893 15.2953C13.8271 15.3596 13.7489 15.4101 13.663 15.4435C13.5772 15.4769 13.4854 15.4926 13.3933 15.4897C13.2689 15.4947 13.1452 15.4685 13.0334 15.4135C12.9217 15.3585 12.8255 15.2764 12.7536 15.1747Z" fill="white"/>
<path d="M14.2975 13.6289H15.7617V14.0547H14.7895V14.3328H15.6625V14.7217H14.7972V15.0114H15.7695V15.4392H14.2917L14.2975 13.6289Z" fill="white"/>
<path d="M16.4753 14.0703H15.9308V13.6289H17.5272V14.0703H16.9808V15.4489H16.4753V14.0703Z" fill="white"/>
<path d="M12.9558 16.1683H13.8153C13.9045 16.161 13.9943 16.1715 14.0794 16.1992C14.1645 16.2269 14.2433 16.2713 14.3111 16.3297C14.3497 16.3684 14.3802 16.4146 14.4006 16.4654C14.4209 16.5162 14.4308 16.5705 14.4297 16.6253C14.4312 16.714 14.4047 16.8009 14.3541 16.8738C14.3036 16.9468 14.2314 17.0019 14.1478 17.0316C14.2512 17.0506 14.3445 17.1059 14.4108 17.1875C14.4771 17.2692 14.5121 17.3718 14.5094 17.4769C14.5094 17.8055 14.2547 18 13.8191 18H12.9558V16.1683ZM13.928 16.7303C13.928 16.6291 13.8464 16.5747 13.6986 16.5747H13.4478V16.8936H13.6908C13.8425 16.8936 13.9319 16.8411 13.9319 16.7361L13.928 16.7303ZM13.753 17.2475H13.4478V17.5839H13.7628C13.9183 17.5839 14.0039 17.5236 14.0039 17.4166C14 17.3136 13.9261 17.2475 13.7569 17.2475H13.753Z" fill="white"/>
<path d="M14.6708 16.1683H15.4778C15.5846 16.1596 15.6921 16.1724 15.7939 16.2057C15.8957 16.2391 15.9899 16.2925 16.0708 16.3628C16.1254 16.4186 16.1679 16.485 16.1957 16.5579C16.2234 16.6308 16.2359 16.7087 16.2322 16.7867C16.2357 16.9077 16.2015 17.0268 16.1342 17.1275C16.067 17.2282 15.9701 17.3055 15.8569 17.3486L16.2925 18H15.7092L15.3417 17.4478H15.1725V18H14.6669L14.6708 16.1683ZM15.4486 17.0433C15.6178 17.0433 15.7208 16.9597 15.7208 16.8256C15.7208 16.6797 15.6139 16.6058 15.4467 16.6058H15.1764V17.0472L15.4486 17.0433Z" fill="white"/>
<path d="M16.9342 16.1547H17.4203L18.1981 17.9903H17.6556L17.5253 17.6617H16.8195L16.6892 18H16.1622L16.9342 16.1547ZM17.3775 17.2689L17.1733 16.7536L16.9672 17.2689H17.3775Z" fill="white"/>
<path d="M18.2778 16.1625H18.7833V17.9844H18.2778V16.1625Z" fill="white"/>
<path d="M18.97 16.1625H19.4444L20.0997 17.1347V16.1625H20.5994V17.9844H20.158L19.4716 16.985V17.9844H18.97V16.1625Z" fill="white"/>
<path d="M20.683 17.7141L20.963 17.3778C21.127 17.5149 21.3327 17.5923 21.5464 17.5975C21.6844 17.5975 21.7564 17.5489 21.7564 17.4711C21.7564 17.3914 21.698 17.3525 21.4472 17.2941C21.0583 17.2047 20.7608 17.0997 20.7608 16.7244C20.7608 16.3861 21.0292 16.1411 21.4667 16.1411C21.7371 16.131 22.0024 16.2171 22.2153 16.3841L21.9722 16.7303C21.8251 16.6191 21.647 16.5566 21.4628 16.5514C21.3403 16.5514 21.28 16.6 21.28 16.668C21.28 16.7516 21.3422 16.7886 21.5969 16.845C22.015 16.9364 22.2736 17.0725 22.2736 17.4128C22.2736 17.7841 21.98 17.9961 21.5386 17.9961C21.2286 18.0093 20.9244 17.9091 20.683 17.7141Z" fill="white"/>
</g>
<defs>
<linearGradient id="paint0_linear_603_6228" x1="6.34669" y1="12.3922" x2="16.0942" y2="17.1328" gradientUnits="userSpaceOnUse">
<stop offset="0.21" stop-color="#FE2857"/>
<stop offset="1" stop-color="#293896"/>
</linearGradient>
<linearGradient id="paint1_linear_603_6228" x1="3.37946" y1="14.0839" x2="16.1292" y2="4.62806" gradientUnits="userSpaceOnUse">
<stop stop-color="#FE2857"/>
<stop offset="0.01" stop-color="#FE2857"/>
<stop offset="0.86" stop-color="#FF318C"/>
</linearGradient>
<linearGradient id="paint2_linear_603_6228" x1="14.422" y1="4.69611" x2="31.1636" y2="19.8978" gradientUnits="userSpaceOnUse">
<stop offset="0.02" stop-color="#FF318C"/>
<stop offset="0.21" stop-color="#FE2857"/>
<stop offset="0.86" stop-color="#FDB60D"/>
</linearGradient>
<linearGradient id="paint3_linear_603_6228" x1="30.2283" y1="17.9611" x2="10.708" y2="31.3972" gradientUnits="userSpaceOnUse">
<stop offset="0.01" stop-color="#FDB60D"/>
<stop offset="0.86" stop-color="#FCF84A"/>
</linearGradient>
<clipPath id="clip0_603_6228">
<rect width="35" height="35" fill="white" transform="translate(0 0.5)"/>
</clipPath>
</defs>
</svg>
