<svg width="77" height="32" viewBox="0 0 77 32" fill="none" xmlns="http://www.w3.org/2000/svg">
<path d="M61.498 26.384V8.59202H65.178L65.21 10.512C65.6367 10.2027 66.1754 9.88269 66.826 9.55202C67.4874 9.21069 68.202 8.92269 68.97 8.68802C69.738 8.45336 70.5114 8.32536 71.2901 8.30402C73.1781 8.25069 74.5434 8.74669 75.386 9.79202C76.2394 10.8267 76.666 12.6454 76.666 15.248V26.384H72.554V15.6C72.554 14.1387 72.3567 13.0987 71.962 12.48C71.578 11.8614 70.7674 11.584 69.53 11.648C69.178 11.6587 68.7727 11.7227 68.314 11.84C67.8554 11.9574 67.386 12.128 66.906 12.352C66.4367 12.5654 65.9887 12.8374 65.562 13.168V26.384H61.498Z" fill="#DBE6FF"/>
<path d="M47.584 26.64C46.496 26.64 45.5307 26.4267 44.688 26C43.856 25.5627 43.2 24.9493 42.72 24.16C42.2507 23.3707 42.016 22.4427 42.016 21.376C42.016 20.2453 42.32 19.2853 42.928 18.496C43.536 17.7067 44.352 17.0933 45.376 16.656C46.0693 16.368 46.816 16.144 47.616 15.984C48.4267 15.824 49.2373 15.712 50.048 15.648C50.8587 15.5733 51.6107 15.536 52.304 15.536L53.088 16.528L52.304 17.904C51.8987 17.904 51.4187 17.936 50.864 18C50.32 18.0533 49.7867 18.1387 49.264 18.256C48.7413 18.3733 48.2987 18.5173 47.936 18.688C47.4347 18.912 47.008 19.2053 46.656 19.568C46.304 19.9307 46.128 20.448 46.128 21.12C46.128 22.0053 46.3733 22.672 46.864 23.12C47.3547 23.5573 48.0533 23.776 48.96 23.776C49.4293 23.776 49.8987 23.712 50.368 23.584C50.8373 23.4453 51.248 23.2907 51.6 23.12C51.952 22.9387 52.1867 22.7787 52.304 22.64L53.072 23.504L52.528 24.88C52.0587 25.3067 51.3867 25.7067 50.512 26.08C49.648 26.4533 48.672 26.64 47.584 26.64ZM56.4 26.384H52.528V23.728H52.304V13.984C52.304 12.9813 52.0373 12.32 51.504 12C50.9813 11.68 50.2347 11.52 49.264 11.52C48.592 11.52 47.8933 11.584 47.168 11.712C46.4533 11.84 45.7867 12.0053 45.168 12.208C44.56 12.4 44.0747 12.6027 43.712 12.816L42.784 10.016C43.072 9.84533 43.5733 9.62666 44.288 9.35999C45.0133 9.08266 45.8507 8.83733 46.8 8.62399C47.76 8.39999 48.7093 8.28799 49.648 8.28799C51.088 8.28799 52.3093 8.45333 53.312 8.78399C54.3147 9.11466 55.0773 9.71199 55.6 10.576C56.1333 11.44 56.4 12.672 56.4 14.272V26.384Z" fill="#DBE6FF"/>
<path d="M39.8261 8.55998L28.0981 20.864L28.3861 19.952L28.4501 23.024V26.384H24.4661V15.792V0.431976H28.4501V13.296L28.3061 17.696L27.4741 17.056L35.0741 8.55998H39.8261ZM30.2101 17.872L32.9621 15.168L40.5141 26.384H35.9061L30.2101 17.872Z" fill="#DBE6FF"/>
<path d="M14.9539 26.384V8.592H19.0339V26.384H14.9539ZM16.7779 5.616C16.1059 5.616 15.5245 5.40267 15.0339 4.976C14.5432 4.54934 14.2979 3.97867 14.2979 3.264C14.2979 2.77334 14.4312 2.33067 14.6979 1.936C14.9752 1.53067 15.3272 1.21067 15.7539 0.976002C16.1805 0.730668 16.6285 0.608002 17.0979 0.608002C17.8979 0.608002 18.5059 0.832001 18.9219 1.28C19.3485 1.728 19.5619 2.288 19.5619 2.96C19.5619 3.71734 19.2845 4.352 18.7299 4.864C18.1752 5.36533 17.5245 5.616 16.7779 5.616Z" fill="#DBE6FF"/>
<path d="M1.136 31.568L0 29.408C0.810667 29.0987 1.62667 28.608 2.448 27.936C3.28 27.264 3.86133 26.32 4.192 25.104C4.43733 24.1867 4.58133 23.0187 4.624 21.6C4.67733 20.1813 4.704 18.608 4.704 16.88V2.608H8.896V16.816C8.896 18.3627 8.90133 19.8293 8.912 21.216C8.92267 22.6027 8.82133 23.8667 8.608 25.008C8.416 26.064 8.04267 26.9867 7.488 27.776C6.944 28.5653 6.304 29.2267 5.568 29.76C4.84267 30.304 4.09067 30.7253 3.312 31.024C2.53333 31.3227 1.808 31.504 1.136 31.568Z" fill="#DBE6FF"/>
</svg>
